<?xml version="1.0" encoding="utf-8"?>
<!-- Svg Vector Icons : http://www.onlinewebfonts.com/icon -->
<!DOCTYPE svg PUBLIC "-//W3C//DTD SVG 1.1//EN" "http://www.w3.org/Graphics/SVG/1.1/DTD/svg11.dtd">
<svg version="1.1" xmlns="http://www.w3.org/2000/svg" xmlns:xlink="http://www.w3.org/1999/xlink" x="0px" y="0px" viewBox="0 0 256 256" enable-background="new 0 0 256 256" xml:space="preserve">
<metadata> Svg Vector Icons : http://www.onlinewebfonts.com/icon </metadata>
<g><g><g><path fill="#000000" d="M162.3,10.9c-2.6,0.5-4.9,1-5.2,1.2c-0.3,0.2-0.5,1-0.5,1.8c0,1.4,1.5,9.5,2.1,11.4c0.2,0.6-0.1,1-0.9,1.2c-0.9,0.4-11.1,2.2-13.9,2.5c-0.8,0.1-1-0.6-1.9-5.2c-0.6-2.9-1.4-6.2-1.9-7.3l-0.8-2l-3.1,0.3c-3,0.3-8.1,1.2-11.6,2.2c-2.2,0.6-2.2,1.1-0.6,8.6c0.6,3,1.2,5.8,1.2,6.2c0,0.5-0.6,1-1.5,1.2c-2.1,0.6-12.1,2.4-14,2.4c-1.8,0-1.7,0.2-3.7-9.1c-0.7-3.1-1.5-6-1.8-6.4c-0.5-0.6-0.9-0.6-4.7,0c-2.3,0.4-6.6,1.3-9.4,1.9L84.9,23l0.3,2.5c0.1,1.3,1,4.8,1.8,7.6c1.1,3.6,1.4,5.2,1,5.5c-0.6,0.6-4.9,1.3-9.6,1.7l-3.6,0.3L74.2,39c-0.4-0.9-1.2-4.2-1.9-7.3c-0.6-3.1-1.3-5.8-1.4-5.9c-0.5-0.6-6,0-10.8,1.1c-5.9,1.3-7.2,1.8-7.7,2.4c-0.4,0.6,0.8,7.1,2.3,12.2c0.7,2.2,1.1,4.2,1,4.3c-0.1,0.1-4.9,1.4-10.6,2.9c-11.7,3-13,3.6-15.1,7.8c-2.9,5.7-2.5,10.5,6.3,72.5c2.4,16.9,5.3,37.6,6.5,46.1C48,212.3,52,232.8,55.4,239c1.5,2.7,4.4,5,7.9,6.1c4,1.3,15,1.1,25.4-0.5c29.5-4.5,111.7-20.6,119.3-23.5c3.5-1.3,8.9-5,10.9-7.5c2.1-2.4,6.3-12.1,7.7-17.3c0.5-1.9,0.9-4.5,0.9-5.8c0-5.4-4.3-37.6-7.9-58.4c-2.8-16.2-4.5-24.6-11.5-56.5c-10-44.9-12.1-52.8-14.7-54.2c-1.1-0.6-6.9,0.4-13.1,2.1c-2.3,0.6-4.2,1-4.4,0.9c-0.4-0.2-1.4-3.9-2.8-10.1l-1-4.5l-2.6,0C168.1,10.1,164.8,10.5,162.3,10.9z M169.3,18.3c1.6,6.6,3.9,18.1,3.9,19.1c0,1-0.3,1.2-2.3,1.6c-1.3,0.3-2.6,0.5-3,0.5c-0.8,0-5.7-21-5.2-22.4c0.3-0.8,2.8-1.6,4.6-1.5C168.6,15.8,168.8,16,169.3,18.3z M136.7,22.6c1,4.8,2.8,16.3,2.8,18.2c0,1.8-0.1,2.1-1.2,2.5c-0.7,0.3-2,0.6-2.9,0.6c-1.6,0-1.6,0-2.4-2.5c-0.9-2.9-3.1-14.9-3.3-17.9c-0.1-1.8,0-2.2,1-2.7c0.6-0.3,2.1-0.6,3.3-0.6h2.1L136.7,22.6z M100.9,27.6c1.4,4.8,3.6,14.9,3.8,18c0.3,3.6,0.2,3.6-4.3,4.3c-3,0.4-2.5,1.3-5.7-11.4c-2.2-9-2.7-11.9-1.9-11.9c0.2,0,1.4-0.3,2.6-0.7C99.7,24.8,100.1,24.9,100.9,27.6z M189.7,28.8c1,1.8,11.2,47.4,11.2,49.8c0,0.6-0.9,0-2.7-1.5c-1.1-0.9-2.2-1.5-2.4-1.3c-0.7,0.4-1.9,3.4-1.6,3.9c0.1,0.2,2,1.5,4.2,2.8c2.1,1.3,4,2.5,4.1,2.7c0.4,0.6,1.8,8.8,1.6,9.3c-0.1,0.2-1.9-0.3-4-1.2c-2.4-1-4-1.5-4.3-1.2c-0.2,0.2-0.4,1.2-0.3,2.2c0.1,1.8,0.2,1.8,5.5,4.6l5.4,2.8l1.2,5c0.6,2.7,1.2,5.1,1,5.2c-0.1,0.1-2.1-1-4.4-2.4c-5-3-5.8-3-5.6,0.2l0.1,2.2l4.7,2.5c2.6,1.4,5,2.8,5.4,3.1c0.7,0.6,2,5,1.6,5.5c-0.1,0.1-2.3-1.1-4.8-2.6c-2.5-1.6-4.8-2.8-5.3-2.7c-0.5,0.1-0.7,0.8-0.8,2c-0.2,2.3-0.1,2.3,7.2,6.6l5,2.9l1.2,5.4c0.6,3,1.2,5.4,1.1,5.4c0,0-2.3-1.2-4.9-2.6c-2.6-1.5-5.2-2.7-5.6-2.7c-0.8,0-1.8,1.8-1.8,3.5c0,0.9,1,1.7,6.5,4.9c5.8,3.5,6.5,4,6.9,5.5c0.7,2.5,2.4,12.5,2.2,12.8c-0.1,0.1-1.4-0.6-2.8-1.6c-4.6-3.5-11-7.5-11.8-7.5c-0.9,0-1.9,1.8-1.9,3.2c0,1.1,1.2,2,9.6,7.8c3.8,2.6,7.1,5.1,7.2,5.5c0.1,0.4,0.4,2.5,0.6,4.6l0.3,3.9l-1.3-0.9c-0.7-0.5-4.2-2.8-7.7-5.2c-3.5-2.3-6.7-4.2-7-4.2c-0.8,0-1.4,1.2-1.8,3.5c-0.3,1.8-0.2,1.9,1.2,2.7c0.8,0.5,5.2,3.2,9.6,6.1l8.2,5.2l0.5,3.6c0.5,3.2,0.5,3.7-0.3,4.7c-0.5,0.6-1.1,1.2-1.3,1.3c-0.2,0.1-2-1.2-4-2.8c-5-4.2-9.8-7.7-10.5-7.7c-1.1,0-2.3,1.5-2.3,2.7c0,1.1,0.9,1.9,5.8,5.5c3.2,2.4,5.7,4.4,5.5,4.7c-0.2,0.3-5.1,2.1-11.2,4c-0.3,0.1-2.8-1.9-5.4-4.4c-2.9-2.7-5.3-4.6-5.8-4.6c-1.2,0-3,1.2-3.4,2.1c-0.5,1.2,0.4,2.2,4.1,5c1.9,1.5,3.5,2.9,3.5,3c0,0.5-2.1,1.2-5.7,2.1l-3.2,0.7l-3.4-3.7c-3-3.2-3.6-3.7-5-3.7c-0.8,0-1.8,0.3-2.1,0.7c-0.5,0.6-0.1,1.2,2.6,4c2.9,3,3.1,3.3,2.3,3.9c-0.5,0.4-6,1.9-12.2,3.4c-18.3,4.5-30.1,6.9-49,10.2c-7.2,1.2-17.2,3-22.1,3.9c-11.1,2.1-18.8,2.6-22.8,1.4c-3.5-1-6.6-3.8-8.5-7.8c-7-14.4-15.3-54.1-23.9-114c-3-21-4-30.5-4.1-38.2l0-6.9l1.5-1c1.9-1.2,7.5-2.8,13.2-3.6c4-0.6,4.5-0.5,4.7,0.1c1.4,5.1,3.1,10.2,3.6,10.8c0.6,0.7,0.9,0.7,6.1-0.4c4.8-1,11.8-2.8,11.8-3.1c0,0-0.4-2.5-0.9-5.4c-1.2-7.2-1.2-7.7,0.4-8c3.3-0.7,7.5-1.2,9.6-1.2H90l1,3.8c0.6,2.1,1.4,4.4,1.8,5.1c0.6,1.2,0.8,1.3,2.8,1c5-0.7,13.7-2.2,14.7-2.6c1.3-0.5,1.3-1.2,0.4-5.5c-0.4-1.7-0.6-3.7-0.7-4.7V41l7.3-1c4-0.5,7.5-1,7.8-1c0.3,0,0.7,1.4,1.1,3.3c0.3,1.8,0.8,4.1,1.2,4.9l0.6,1.5l2.7-0.3c4-0.4,15.4-2.4,15.7-2.6c0.1-0.1-0.2-2.1-0.7-4.4c-1.5-6.3-1.8-5.9,4.2-7c6-1.1,9.6-1.6,9.6-1.4c0,0.6,1.4,8.1,1.8,9.6l0.5,1.9l2.4-0.3c4.4-0.6,13.8-2.2,14.9-2.5l1-0.4l-1.1-5.7c-0.6-3.1-0.9-5.9-0.7-6c0.5-0.5,6.9-1.6,9.4-1.7C188.7,28,189.4,28.2,189.7,28.8z M67.5,32.5c1.1,4.2,4.2,20.4,4.2,22.1c0,2.4-0.8,3.1-3.9,3.2h-2.4l-1.3-3.9c-1.8-5.3-4.9-17.9-4.9-19.5c0-1.4,0.7-1.9,4.2-2.9C66.9,30.5,67,30.6,67.5,32.5z M219.7,202.7c0,0.2-0.9,2.1-1.9,4.2c-2.7,5.4-5.4,8-9.5,9.3c-11,3.4-82,17.6-107.2,21.5c-12.8,2-19.7,2.7-27.2,2.7c-8.1,0.1-9.4-0.3-12.1-3.3c-2.8-3.2-5.7-10.8-6.6-17.2l-0.3-2.1l1.7,2.5c3.6,5.4,7.1,8,13.7,10.2c5.5,1.8,10.7,2.2,17.4,1.2c9.6-1.5,65.3-12,84.9-16c17.3-3.6,31.4-7.5,42.4-11.9C218.7,202.4,219.7,202.2,219.7,202.7z"/><path fill="#000000" d="M180.7,56.9c-0.3,0.1-1.5,3.1-2.7,6.7c-1.2,3.5-2.3,6.5-2.5,6.6c-0.2,0.1-3-1.7-6.1-4.1c-3.1-2.4-6-4.4-6.2-4.4c-0.8,0-3,3.1-2.9,4c0.1,0.6,9.4,7.4,12.8,9.4c0.6,0.3,0.6,0.9-0.3,4c-0.6,2-0.9,3.7-0.8,3.8c0.1,0,1.2,0,2.5-0.2c2.3-0.3,2.3-0.3,3.2-2.8c2.1-5.5,7-20.8,7-21.7C184.7,57,182.3,56.2,180.7,56.9z"/><path fill="#000000" d="M47.6,63.6c-0.7,0.5-0.7,1.1-0.3,4.8c0.6,6,1.8,13.1,2.5,14.9c0.5,1.2,0.9,1.5,1.9,1.5c0.8,0,1.8-0.4,2.4-0.9c1.1-0.8,1.1-0.8,0.5-5.9c-0.3-2.8-0.9-7.2-1.3-9.9l-0.8-4.8l-2.1-0.1C49.2,63.1,48,63.3,47.6,63.6z"/><path fill="#000000" d="M145.8,64.4c-1.3,1-2,3.7-4.2,15.2c-1.7,8.7-1.7,8.4,1.2,8.2l2.4-0.1l0.1-3.3c0.1-3.8,0.3-4,4.1-4.5l2.4-0.3l1.2,2.8c0.7,1.6,1.6,3,1.9,3c0.9,0.4,3.9-1.1,3.9-1.9c0-1-2.6-7.3-6-14.3c-2.7-5.7-2.8-5.8-4.3-5.8C147.7,63.5,146.4,63.9,145.8,64.4z M149.4,72.8c0.9,1.7,0.9,1.7,0,2.4c-1.9,1.4-2.5,1-2.5-1.8c0-2.2,0.1-2.5,0.8-2.4C148.1,71.1,148.9,71.9,149.4,72.8z"/><path fill="#000000" d="M121.2,68.8c-3.8,0.9-8.1,2.5-8.3,3.2c-0.5,1.3,4.1,19.2,5.2,20.4c0.9,0.8,1.7,0.6,6.5-1.8c4.3-2.1,7.9-5.1,9-7.5c1.2-2.6,1-6.1-0.7-9.5C130.6,68.9,127.2,67.4,121.2,68.8z M127,73.9c2.7,1.4,3.1,5.2,1,8.9c-1.5,2.6-4.4,4.9-5.9,4.7c-1-0.2-2.8-5.8-3.2-10.2l-0.3-2.7l1.6-0.6C122.2,73.1,125.3,73,127,73.9z"/><path fill="#000000" d="M95.3,76.5c-1.8,0.5-4.1,2.8-5.1,5c-1.2,2.6-1.1,7.7,0.2,10c1.2,2.4,4.4,5.1,6.2,5.5c3.8,0.8,9.4-3,10.5-7.2c1.4-5.2-1.3-11.1-6.1-13.1C99.2,75.9,97.5,75.8,95.3,76.5z M100,81.7c2.3,2.4,2.6,7.7,0.4,9.8c-2.8,2.8-6.6-0.3-6.6-5.4C93.8,81.6,97.4,79,100,81.7z"/><path fill="#000000" d="M74.6,79.3c-10,1.9-10.5,2.1-10.7,4.2c-0.1,1.1,0.1,2,0.7,2.7l0.8,1l3-0.9c1.7-0.6,3.1-1,3.3-1c0.6,0,1.3,2.5,3,9c0.8,3.5,1.8,6.6,2,6.9c0.6,0.6,3.6-0.7,4.1-1.8c0.3-0.6-0.8-6.5-2.5-14.3c-0.2-0.9,0-1,2.9-1.3c4.2-0.5,4.3-0.5,4.3-2.5C85.5,77.3,85.2,77.2,74.6,79.3z"/><path fill="#000000" d="M175.7,91.5c-13.6,2.5-71.8,14.8-89.5,18.8c-14.8,3.4-13.5,3-13.8,4.5c-0.4,1.8,0.1,4.1,1.1,4.4c1,0.4,4.7-0.3,24.5-4.5c25.4-5.4,81.6-17.9,84.1-18.7c0.9-0.3,1.1-2.2,0.3-4.1C181.9,90.6,181.2,90.5,175.7,91.5z"/><path fill="#000000" d="M178.7,117.8c-17.7,3-69.8,14.5-71,15.6c-0.5,0.4-0.5,1.2-0.3,3c0.2,1.3,0.5,2.4,0.6,2.5c0.5,0.3,72.6-15.1,74.8-15.9c1.2-0.5,1.2-1.4,0.1-4.2C182.4,117.4,181.7,117.3,178.7,117.8z"/><path fill="#000000" d="M84.3,130.6c-7.8,1.1-10.8,1.7-11.6,2.4c-0.6,0.6-0.6,1.4-0.4,3.8c0.5,5.4,1.7,12.7,2.3,14.2c0.6,1.4,0.8,1.5,2.8,1.5c2.4,0,8.9-1.4,14.5-3l3.9-1.2l-0.3-4.3c-0.3-4.3-0.8-7.8-1.7-11.9l-0.5-2.2l-2.4,0C89.6,130,86.6,130.3,84.3,130.6z M88.9,135.4c0.1,0.2,0.6,2.4,1,4.9c0.9,5.4,1.1,5.2-4.6,6.4c-5.3,1.1-6.4,0.9-7.1-1.3c-0.3-1-0.7-3.2-0.8-4.9c-0.3-2.9-0.2-3.2,0.6-3.6C80.7,135.4,88.3,134.4,88.9,135.4z"/><path fill="#000000" d="M184.9,151.7c-36.4,6.7-68.2,13.4-70.4,14.7c-0.7,0.5-0.8,4.5,0,5.2c0.2,0.2,1.7,0.1,3.6-0.3c65.1-14.3,71.6-15.7,71.6-16.5c0-0.5-0.2-1.4-0.5-2.3C188.7,151.1,188.6,151,184.9,151.7z"/><path fill="#000000" d="M85.5,163.2c-2.7,0.4-6,1.2-7.5,1.6l-2.7,0.8l0.3,1.9c0.5,3.1,3,13.2,3.8,15.2c0.4,1,0.9,1.8,1.2,1.8c3.6,0.3,17.9-3,19.5-4.5c0.6-0.6,0.7-1.3,0.4-3.8c-0.4-3.8-1.4-8.8-2.4-11.7l-0.7-2.2l-3.5,0C92,162.3,88.1,162.7,85.5,163.2z M94.6,169.9c0.3,1,0.6,2.8,0.7,4.1l0.1,2.3l-4.2,1c-2.3,0.6-5,1.2-6.1,1.3l-1.9,0.3l-0.7-2.5c-0.4-1.3-0.8-3.3-1-4.4l-0.3-1.9l2.4-0.5c6.4-1.2,9.5-1.8,9.9-1.7C93.8,168.1,94.3,168.9,94.6,169.9z"/><path fill="#000000" d="M185.8,180.3c-2.3,0.5-10.5,2.3-18.2,3.9c-27,5.8-47.2,10.5-50.5,11.7c-1,0.4-1.2,0.7-1.2,2.2c0,3.2,0,3.2,7.9,1.5c8.3-1.7,44.9-9.9,60.1-13.4c11.4-2.6,11.3-2.5,9.8-5.5C192.8,179,191.9,179,185.8,180.3z"/><path fill="#000000" d="M95,191.6c-3.6,0.5-11.2,1.9-12.4,2.4l-1.3,0.6l0.3,4.9c0.3,4.5,1.3,11.3,2,13.6c0.3,0.8,0.6,0.9,3.2,0.6c4-0.4,17-3,17.5-3.6c0.8-0.8-0.3-15.3-1.5-18.2C102.5,191.3,98.6,191.1,95,191.6z M98.6,199.5c1,2.6,1.3,5.1,0.8,6.1c-0.5,0.9-5.4,2.3-10.5,3l-1.9,0.3l-0.3-1.8c-0.4-2.5-0.3-6.7,0.1-7.4c0.6-0.8,4.8-1.8,8.2-1.8l2.9,0L98.6,199.5z"/></g></g></g>
</svg>